<svg xmlns="http://www.w3.org/2000/svg" viewBox="0 0 640 360" width="640" height="360" role="img">
<defs>
<linearGradient id="bg" x1="0" y1="0" x2="1" y2="1"><stop offset="0" stop-color="#d9f5f3"/><stop offset="1" stop-color="#8fdad4"/></linearGradient>
<filter id="sh" x="-20%" y="-20%" width="140%" height="150%"><feDropShadow dx="0" dy="8" stdDeviation="9" flood-color="#000" flood-opacity="0.22"/></filter><filter id="sh2" x="-20%" y="-20%" width="140%" height="150%"><feDropShadow dx="0" dy="4" stdDeviation="4" flood-color="#000" flood-opacity="0.18"/></filter>
</defs>
<rect width="640" height="360" fill="url(#bg)"/>
<circle cx="204.4" cy="60.7" r="133.6" fill="#ffffff" opacity="0.10"/><circle cx="595.3" cy="83.1" r="65.1" fill="#ffffff" opacity="0.10"/><circle cx="317.2" cy="272.1" r="119.9" fill="#ffffff" opacity="0.09"/><circle cx="255.7" cy="339.8" r="111.7" fill="#ffffff" opacity="0.12"/><circle cx="24" cy="28" r="2" fill="#ffffff" opacity="0.35"/><circle cx="38" cy="28" r="2" fill="#ffffff" opacity="0.35"/><circle cx="52" cy="28" r="2" fill="#ffffff" opacity="0.35"/><circle cx="66" cy="28" r="2" fill="#ffffff" opacity="0.35"/><circle cx="80" cy="28" r="2" fill="#ffffff" opacity="0.35"/><circle cx="24" cy="42" r="2" fill="#ffffff" opacity="0.35"/><circle cx="38" cy="42" r="2" fill="#ffffff" opacity="0.35"/><circle cx="52" cy="42" r="2" fill="#ffffff" opacity="0.35"/><circle cx="66" cy="42" r="2" fill="#ffffff" opacity="0.35"/><circle cx="80" cy="42" r="2" fill="#ffffff" opacity="0.35"/><circle cx="24" cy="56" r="2" fill="#ffffff" opacity="0.35"/><circle cx="38" cy="56" r="2" fill="#ffffff" opacity="0.35"/><circle cx="52" cy="56" r="2" fill="#ffffff" opacity="0.35"/><circle cx="66" cy="56" r="2" fill="#ffffff" opacity="0.35"/><circle cx="80" cy="56" r="2" fill="#ffffff" opacity="0.35"/><circle cx="24" cy="70" r="2" fill="#ffffff" opacity="0.35"/><circle cx="38" cy="70" r="2" fill="#ffffff" opacity="0.35"/><circle cx="52" cy="70" r="2" fill="#ffffff" opacity="0.35"/><circle cx="66" cy="70" r="2" fill="#ffffff" opacity="0.35"/><circle cx="80" cy="70" r="2" fill="#ffffff" opacity="0.35"/>
<g transform="translate(320 190) rotate(0)" filter="url(#sh)">
    <g transform="translate(-230 -131)">
      <rect x="0" y="0" width="460" height="262" rx="14" fill="#ffffff" />
      <clipPath id="b8"><rect x="0" y="0" width="460" height="262" rx="14" fill="#000" /></clipPath>
      <g clip-path="url(#b8)">
        <rect x="0" y="0" width="460" height="32" rx="0" fill="#eef1f6" />
        <circle cx="16" cy="16" r="4.5" fill="#ff6159" /><circle cx="31" cy="16" r="4.5" fill="#ffbd2e" /><circle cx="46" cy="16" r="4.5" fill="#28c940" />
        <rect x="66" y="8" width="370" height="16" rx="8" fill="#ffffff" />
        <rect x="0" y="32" width="430" height="230" rx="0" fill="#f6f8fc" />
      <circle cx="54" cy="84" r="26" fill="#0e9aa7" /><circle cx="54" cy="78" r="9" fill="#fff" /><path d="M38 100C38 88 70 88 70 100Z" fill="#fff" />
      <rect x="26" y="124" width="64" height="6" rx="3" fill="#0b4a50" opacity="0.7"/><rect x="26" y="138" width="44" height="6" rx="3" fill="#0b4a50" opacity="0.7"/><rect x="26" y="160" width="56" height="20" rx="10" fill="#ff8c42" /><rect x="26" y="188" width="90" height="20" rx="10" fill="#fff" stroke="#0b4a50" stroke-opacity="0.25" stroke-width="2"/>
      <rect x="130" y="52" width="100" height="66" rx="10" fill="#0e9aa7" /><circle cx="180" cy="85" r="16" fill="#fff" opacity="0.8"/><rect x="238" y="52" width="100" height="66" rx="10" fill="#ff8c42" /><rect x="264" y="70" width="48" height="30" rx="6" fill="#fff" opacity="0.8"/><rect x="346" y="52" width="100" height="66" rx="10" fill="#7a5cff" /><path d="M366 102L396 68L426 102Z" fill="#fff" opacity="0.8"/>
      <rect x="130" y="128" width="100" height="66" rx="10" fill="#7a5cff" /><rect x="156" y="146" width="48" height="30" rx="6" fill="#fff" opacity="0.8"/><rect x="238" y="128" width="100" height="66" rx="10" fill="#0e9aa7" /><path d="M258 178L288 144L318 178Z" fill="#fff" opacity="0.8"/><rect x="346" y="128" width="100" height="66" rx="10" fill="#ff8c42" /><circle cx="396" cy="161" r="16" fill="#fff" opacity="0.8"/>
      <rect x="130" y="210" width="100" height="4" rx="2" fill="#0b4a50" opacity="0.2"/><rect x="130" y="210" width="100" height="4" rx="2" fill="#0b4a50" opacity="0.2"/><rect x="130" y="210" width="100" height="4" rx="2" fill="#0b4a50" opacity="0.2"/>
      </g>
    </g>
  </g>
</svg>
