<svg xmlns="http://www.w3.org/2000/svg" viewBox="0 0 640 360" width="640" height="360" role="img">
<defs>
<linearGradient id="bg" x1="0" y1="0" x2="1" y2="1"><stop offset="0" stop-color="#f6ead7"/><stop offset="1" stop-color="#e5cfa8"/></linearGradient>
<filter id="sh" x="-20%" y="-20%" width="140%" height="150%"><feDropShadow dx="0" dy="8" stdDeviation="9" flood-color="#000" flood-opacity="0.22"/></filter><filter id="sh2" x="-20%" y="-20%" width="140%" height="150%"><feDropShadow dx="0" dy="4" stdDeviation="4" flood-color="#000" flood-opacity="0.18"/></filter>
</defs>
<rect width="640" height="360" fill="url(#bg)"/>
<circle cx="202.5" cy="82.9" r="128.3" fill="#ffffff" opacity="0.10"/><circle cx="598.1" cy="4.1" r="143.8" fill="#ffffff" opacity="0.07"/><circle cx="561.9" cy="91.5" r="124.3" fill="#ffffff" opacity="0.15"/><circle cx="572.1" cy="311" r="144.2" fill="#ffffff" opacity="0.13"/><circle cx="546" cy="28" r="2" fill="#ffffff" opacity="0.35"/><circle cx="560" cy="28" r="2" fill="#ffffff" opacity="0.35"/><circle cx="574" cy="28" r="2" fill="#ffffff" opacity="0.35"/><circle cx="588" cy="28" r="2" fill="#ffffff" opacity="0.35"/><circle cx="602" cy="28" r="2" fill="#ffffff" opacity="0.35"/><circle cx="546" cy="42" r="2" fill="#ffffff" opacity="0.35"/><circle cx="560" cy="42" r="2" fill="#ffffff" opacity="0.35"/><circle cx="574" cy="42" r="2" fill="#ffffff" opacity="0.35"/><circle cx="588" cy="42" r="2" fill="#ffffff" opacity="0.35"/><circle cx="602" cy="42" r="2" fill="#ffffff" opacity="0.35"/><circle cx="546" cy="56" r="2" fill="#ffffff" opacity="0.35"/><circle cx="560" cy="56" r="2" fill="#ffffff" opacity="0.35"/><circle cx="574" cy="56" r="2" fill="#ffffff" opacity="0.35"/><circle cx="588" cy="56" r="2" fill="#ffffff" opacity="0.35"/><circle cx="602" cy="56" r="2" fill="#ffffff" opacity="0.35"/><circle cx="546" cy="70" r="2" fill="#ffffff" opacity="0.35"/><circle cx="560" cy="70" r="2" fill="#ffffff" opacity="0.35"/><circle cx="574" cy="70" r="2" fill="#ffffff" opacity="0.35"/><circle cx="588" cy="70" r="2" fill="#ffffff" opacity="0.35"/><circle cx="602" cy="70" r="2" fill="#ffffff" opacity="0.35"/>
<g transform="translate(240 185) rotate(5)" filter="url(#sh)">
    <rect x="-70" y="-135" width="140" height="270" rx="24" fill="#4a3520" />
    <clipPath id="p5"><rect x="-62" y="-127" width="124" height="254" rx="17" fill="#000" /></clipPath>
    <rect x="-62" y="-127" width="124" height="254" rx="17" fill="#fff" />
    <g clip-path="url(#p5)"><rect x="-62" y="-120" width="124" height="40" rx="0" fill="#5b7f5b" /><rect x="-50" y="-106" width="56" height="5" rx="2.5" fill="#fff" /><rect x="-50" y="-96" width="34" height="5" rx="2.5" fill="#fff" />
      <rect x="-54" y="-66" width="62" height="34" rx="12" fill="#f1f3f6" /><rect x="-46" y="-55" width="44" height="4" rx="2" fill="#4a3520" opacity="0.5"/><rect x="-46" y="-46" width="28" height="4" rx="2" fill="#4a3520" opacity="0.5"/><rect x="-8" y="-24" width="62" height="34" rx="12" fill="#b5763a" /><rect x="0" y="-13" width="44" height="4" rx="2" fill="#fff" /><rect x="0" y="-4" width="28" height="4" rx="2" fill="#fff" /><rect x="-54" y="18" width="62" height="34" rx="12" fill="#f1f3f6" /><rect x="-46" y="29" width="44" height="4" rx="2" fill="#4a3520" opacity="0.5"/><rect x="-46" y="38" width="28" height="4" rx="2" fill="#4a3520" opacity="0.5"/><rect x="-8" y="60" width="62" height="34" rx="12" fill="#b5763a" /><rect x="0" y="71" width="44" height="4" rx="2" fill="#fff" /><rect x="0" y="80" width="28" height="4" rx="2" fill="#fff" /></g>
    <rect x="-22" y="-123" width="44" height="9" rx="4.5" fill="#4a3520" />
  </g><g transform="translate(445 170)">
        <path d="M0 74C-44 22 -52 -6 -52 -22A52 52 0 0 1 52 -22C52 -6 44 22 0 74Z" fill="#d9534f" filter="url(#sh2)"/>
        <circle cx="0" cy="-22" r="20" fill="#ffffff" /><circle cx="0" cy="-22" r="9" fill="#d9534f" />
      </g>
      <path d="M330 300Q440 330 560 250" fill="none" stroke="#4a3520" stroke-width="3" stroke-linecap="round" stroke-linejoin="round" stroke-dasharray="2 9" opacity="0.5"/>
      <g transform="translate(470 70) rotate(-12)" ><path d="M0 0L48 -12L58 -24L66 -22L60 -8L74 -2L70 6L52 4L36 20L28 18L36 2L10 8L2 16L-4 12Z" fill="#4a3520" opacity="0.85"/></g>
      <path d="M380 78Q380 90 392 90Q380 90 380 102Q380 90 368 90Q380 90 380 78Z" fill="#5b7f5b" />
</svg>
