<svg xmlns="http://www.w3.org/2000/svg" viewBox="0 0 640 360" width="640" height="360" role="img">
<defs>
<linearGradient id="bg" x1="0" y1="0" x2="1" y2="1"><stop offset="0" stop-color="#ffe5e0"/><stop offset="1" stop-color="#ffb3a7"/></linearGradient>
<filter id="sh" x="-20%" y="-20%" width="140%" height="150%"><feDropShadow dx="0" dy="8" stdDeviation="9" flood-color="#000" flood-opacity="0.22"/></filter><filter id="sh2" x="-20%" y="-20%" width="140%" height="150%"><feDropShadow dx="0" dy="4" stdDeviation="4" flood-color="#000" flood-opacity="0.18"/></filter>
</defs>
<rect width="640" height="360" fill="url(#bg)"/>
<circle cx="47.7" cy="356.5" r="78.2" fill="#ffffff" opacity="0.10"/><circle cx="252.9" cy="307.8" r="69.1" fill="#ffffff" opacity="0.08"/><circle cx="157.9" cy="356" r="131.2" fill="#ffffff" opacity="0.08"/><circle cx="316.2" cy="9.2" r="119.6" fill="#ffffff" opacity="0.11"/><circle cx="24" cy="28" r="2" fill="#ffffff" opacity="0.35"/><circle cx="38" cy="28" r="2" fill="#ffffff" opacity="0.35"/><circle cx="52" cy="28" r="2" fill="#ffffff" opacity="0.35"/><circle cx="66" cy="28" r="2" fill="#ffffff" opacity="0.35"/><circle cx="80" cy="28" r="2" fill="#ffffff" opacity="0.35"/><circle cx="24" cy="42" r="2" fill="#ffffff" opacity="0.35"/><circle cx="38" cy="42" r="2" fill="#ffffff" opacity="0.35"/><circle cx="52" cy="42" r="2" fill="#ffffff" opacity="0.35"/><circle cx="66" cy="42" r="2" fill="#ffffff" opacity="0.35"/><circle cx="80" cy="42" r="2" fill="#ffffff" opacity="0.35"/><circle cx="24" cy="56" r="2" fill="#ffffff" opacity="0.35"/><circle cx="38" cy="56" r="2" fill="#ffffff" opacity="0.35"/><circle cx="52" cy="56" r="2" fill="#ffffff" opacity="0.35"/><circle cx="66" cy="56" r="2" fill="#ffffff" opacity="0.35"/><circle cx="80" cy="56" r="2" fill="#ffffff" opacity="0.35"/><circle cx="24" cy="70" r="2" fill="#ffffff" opacity="0.35"/><circle cx="38" cy="70" r="2" fill="#ffffff" opacity="0.35"/><circle cx="52" cy="70" r="2" fill="#ffffff" opacity="0.35"/><circle cx="66" cy="70" r="2" fill="#ffffff" opacity="0.35"/><circle cx="80" cy="70" r="2" fill="#ffffff" opacity="0.35"/>
<g transform="translate(320 190) rotate(1)" filter="url(#sh)">
    <g transform="translate(-215 -131)">
      <rect x="0" y="0" width="430" height="262" rx="14" fill="#ffffff" />
      <clipPath id="b10"><rect x="0" y="0" width="430" height="262" rx="14" fill="#000" /></clipPath>
      <g clip-path="url(#b10)">
        <rect x="0" y="0" width="430" height="32" rx="0" fill="#eef1f6" />
        <circle cx="16" cy="16" r="4.5" fill="#ff6159" /><circle cx="31" cy="16" r="4.5" fill="#ffbd2e" /><circle cx="46" cy="16" r="4.5" fill="#28c940" />
        <rect x="66" y="8" width="340" height="16" rx="8" fill="#ffffff" />
        <rect x="0" y="32" width="430" height="230" rx="0" fill="#f6f8fc" />
      <rect x="14" y="46" width="270" height="198" rx="12" fill="#fff" filter="url(#sh2)"/>
      <rect x="24" y="60" width="90" height="7" rx="3.5" fill="#6e1f1c" opacity="0.7"/><rect x="24" y="80" width="232" height="30" rx="8" fill="#f1f3f7" /><rect x="34" y="91" width="90" height="6" rx="3" fill="#6e1f1c" opacity="0.3"/><rect x="24" y="120" width="232" height="30" rx="8" fill="#f1f3f7" /><rect x="34" y="131" width="90" height="6" rx="3" fill="#6e1f1c" opacity="0.3"/>
      <rect x="24" y="162" width="70" height="24" rx="12" fill="#eef0f5" /><rect x="102" y="162" width="70" height="24" rx="12" fill="#f04f4a" /><rect x="180" y="162" width="70" height="24" rx="12" fill="#eef0f5" />
      <rect x="24" y="198" width="232" height="32" rx="10" fill="#f04f4a" /><rect x="110" y="210" width="60" height="8" rx="4" fill="#fff" />
      <rect x="298" y="62" width="116" height="110" rx="12" fill="#fff" filter="url(#sh2)"/>
      <circle cx="356" cy="98" r="22" fill="#ffc145" opacity="0.25"/><path d="M345 98L354 107L370 88" fill="none" stroke="#ffc145" stroke-width="5" stroke-linecap="round" stroke-linejoin="round"/>
      <rect x="316" y="132" width="80" height="6" rx="3" fill="#6e1f1c" opacity="0.4"/><rect x="316" y="146" width="56" height="6" rx="3" fill="#6e1f1c" opacity="0.4"/>
      <rect x="306" y="190" width="100" height="26" rx="13" fill="#2f6fed" />
      </g>
    </g>
  </g>
</svg>
