<svg xmlns="http://www.w3.org/2000/svg" viewBox="0 0 640 360" width="640" height="360" role="img">
<defs>
<linearGradient id="bg" x1="0" y1="0" x2="1" y2="1"><stop offset="0" stop-color="#d6ecff"/><stop offset="1" stop-color="#7fb8ff"/></linearGradient>
<filter id="sh" x="-20%" y="-20%" width="140%" height="150%"><feDropShadow dx="0" dy="8" stdDeviation="9" flood-color="#000" flood-opacity="0.22"/></filter><filter id="sh2" x="-20%" y="-20%" width="140%" height="150%"><feDropShadow dx="0" dy="4" stdDeviation="4" flood-color="#000" flood-opacity="0.18"/></filter>
</defs>
<rect width="640" height="360" fill="url(#bg)"/>
<circle cx="178" cy="110.2" r="94.9" fill="#ffffff" opacity="0.08"/><circle cx="184.5" cy="147.1" r="87.5" fill="#ffffff" opacity="0.11"/><circle cx="147" cy="230.3" r="149.4" fill="#ffffff" opacity="0.10"/><circle cx="114.6" cy="351.3" r="147.6" fill="#ffffff" opacity="0.13"/><circle cx="24" cy="28" r="2" fill="#ffffff" opacity="0.35"/><circle cx="38" cy="28" r="2" fill="#ffffff" opacity="0.35"/><circle cx="52" cy="28" r="2" fill="#ffffff" opacity="0.35"/><circle cx="66" cy="28" r="2" fill="#ffffff" opacity="0.35"/><circle cx="80" cy="28" r="2" fill="#ffffff" opacity="0.35"/><circle cx="24" cy="42" r="2" fill="#ffffff" opacity="0.35"/><circle cx="38" cy="42" r="2" fill="#ffffff" opacity="0.35"/><circle cx="52" cy="42" r="2" fill="#ffffff" opacity="0.35"/><circle cx="66" cy="42" r="2" fill="#ffffff" opacity="0.35"/><circle cx="80" cy="42" r="2" fill="#ffffff" opacity="0.35"/><circle cx="24" cy="56" r="2" fill="#ffffff" opacity="0.35"/><circle cx="38" cy="56" r="2" fill="#ffffff" opacity="0.35"/><circle cx="52" cy="56" r="2" fill="#ffffff" opacity="0.35"/><circle cx="66" cy="56" r="2" fill="#ffffff" opacity="0.35"/><circle cx="80" cy="56" r="2" fill="#ffffff" opacity="0.35"/><circle cx="24" cy="70" r="2" fill="#ffffff" opacity="0.35"/><circle cx="38" cy="70" r="2" fill="#ffffff" opacity="0.35"/><circle cx="52" cy="70" r="2" fill="#ffffff" opacity="0.35"/><circle cx="66" cy="70" r="2" fill="#ffffff" opacity="0.35"/><circle cx="80" cy="70" r="2" fill="#ffffff" opacity="0.35"/>
<g transform="translate(150 44) rotate(-2)" filter="url(#sh)"><rect x="0" y="0" width="340" height="192" rx="16" fill="#0d2c66" /><rect x="12" y="12" width="316" height="168" rx="10" fill="#7fb8ff" opacity="0.55"/><circle cx="170" cy="82" r="30" fill="#ffffff" opacity="0.9"/><path d="M162 66L186 82L162 98Z" fill="#1f6feb" /><rect x="60" y="138" width="220" height="22" rx="8" fill="#000" opacity="0.55"/><rect x="78" y="145" width="184" height="7" rx="3.5" fill="#fff" opacity="0.95"/></g>
     <rect x="150" y="266" width="340" height="6" rx="3" fill="#fff" opacity="0.4"/><rect x="150" y="266" width="190" height="6" rx="3" fill="#ffb703" />
     <rect x="150" y="294" width="8" height="12" rx="4" fill="#1f6feb" /><rect x="165.5" y="284" width="8" height="32" rx="4" fill="#1f6feb" /><rect x="181" y="274" width="8" height="52" rx="4" fill="#1f6feb" /><rect x="196.5" y="289" width="8" height="22" rx="4" fill="#1f6feb" /><rect x="212" y="279" width="8" height="42" rx="4" fill="#1f6feb" /><rect x="227.5" y="294" width="8" height="12" rx="4" fill="#1f6feb" /><rect x="243" y="284" width="8" height="32" rx="4" fill="#1f6feb" /><rect x="258.5" y="274" width="8" height="52" rx="4" fill="#1f6feb" /><rect x="274" y="289" width="8" height="22" rx="4" fill="#1f6feb" /><rect x="289.5" y="279" width="8" height="42" rx="4" fill="#1f6feb" /><rect x="305" y="294" width="8" height="12" rx="4" fill="#1f6feb" /><rect x="320.5" y="284" width="8" height="32" rx="4" fill="#1f6feb" /><rect x="336" y="274" width="8" height="52" rx="4" fill="#ffffff" opacity="0.5"/><rect x="351.5" y="289" width="8" height="22" rx="4" fill="#ffffff" opacity="0.5"/><rect x="367" y="279" width="8" height="42" rx="4" fill="#ffffff" opacity="0.5"/><rect x="382.5" y="294" width="8" height="12" rx="4" fill="#ffffff" opacity="0.5"/><rect x="398" y="284" width="8" height="32" rx="4" fill="#ffffff" opacity="0.5"/><rect x="413.5" y="274" width="8" height="52" rx="4" fill="#ffffff" opacity="0.5"/><rect x="429" y="289" width="8" height="22" rx="4" fill="#ffffff" opacity="0.5"/><rect x="444.5" y="279" width="8" height="42" rx="4" fill="#ffffff" opacity="0.5"/><rect x="460" y="294" width="8" height="12" rx="4" fill="#ffffff" opacity="0.5"/><rect x="475.5" y="284" width="8" height="32" rx="4" fill="#ffffff" opacity="0.5"/>
     <g transform="translate(40 220) rotate(-6)" filter="url(#sh2)"><rect x="0" y="0" width="120" height="52" rx="14" fill="#fff" /><rect x="16" y="14" width="88" height="6" rx="3" fill="#0d2c66" opacity="0.45"/><rect x="16" y="28" width="56" height="6" rx="3" fill="#0d2c66" opacity="0.45"/></g><path d="M540 56Q540 70 554 70Q540 70 540 84Q540 70 526 70Q540 70 540 56Z" fill="#ffb703" />
</svg>
