<svg xmlns="http://www.w3.org/2000/svg" viewBox="0 0 640 360" width="640" height="360" role="img">
<defs>
<linearGradient id="bg" x1="0" y1="0" x2="1" y2="1"><stop offset="0" stop-color="#e1f1ff"/><stop offset="1" stop-color="#b6dcff"/></linearGradient>
<filter id="sh" x="-20%" y="-20%" width="140%" height="150%"><feDropShadow dx="0" dy="8" stdDeviation="9" flood-color="#000" flood-opacity="0.22"/></filter><filter id="sh2" x="-20%" y="-20%" width="140%" height="150%"><feDropShadow dx="0" dy="4" stdDeviation="4" flood-color="#000" flood-opacity="0.18"/></filter>
</defs>
<rect width="640" height="360" fill="url(#bg)"/>
<circle cx="221.9" cy="277.2" r="140.8" fill="#ffffff" opacity="0.13"/><circle cx="529" cy="340.8" r="133.8" fill="#ffffff" opacity="0.09"/><circle cx="198.8" cy="264" r="82.5" fill="#ffffff" opacity="0.09"/><circle cx="213.8" cy="347" r="100.2" fill="#ffffff" opacity="0.14"/><circle cx="546" cy="28" r="2" fill="#ffffff" opacity="0.35"/><circle cx="560" cy="28" r="2" fill="#ffffff" opacity="0.35"/><circle cx="574" cy="28" r="2" fill="#ffffff" opacity="0.35"/><circle cx="588" cy="28" r="2" fill="#ffffff" opacity="0.35"/><circle cx="602" cy="28" r="2" fill="#ffffff" opacity="0.35"/><circle cx="546" cy="42" r="2" fill="#ffffff" opacity="0.35"/><circle cx="560" cy="42" r="2" fill="#ffffff" opacity="0.35"/><circle cx="574" cy="42" r="2" fill="#ffffff" opacity="0.35"/><circle cx="588" cy="42" r="2" fill="#ffffff" opacity="0.35"/><circle cx="602" cy="42" r="2" fill="#ffffff" opacity="0.35"/><circle cx="546" cy="56" r="2" fill="#ffffff" opacity="0.35"/><circle cx="560" cy="56" r="2" fill="#ffffff" opacity="0.35"/><circle cx="574" cy="56" r="2" fill="#ffffff" opacity="0.35"/><circle cx="588" cy="56" r="2" fill="#ffffff" opacity="0.35"/><circle cx="602" cy="56" r="2" fill="#ffffff" opacity="0.35"/><circle cx="546" cy="70" r="2" fill="#ffffff" opacity="0.35"/><circle cx="560" cy="70" r="2" fill="#ffffff" opacity="0.35"/><circle cx="574" cy="70" r="2" fill="#ffffff" opacity="0.35"/><circle cx="588" cy="70" r="2" fill="#ffffff" opacity="0.35"/><circle cx="602" cy="70" r="2" fill="#ffffff" opacity="0.35"/>
<ellipse cx="320" cy="306" rx="230" ry="22" fill="#123a6b" opacity="0.18"/>
     <g transform="translate(310 150) rotate(-14)" filter="url(#sh)"><rect x="-170" y="-8" width="340" height="16" rx="8" fill="#c4cad6" /><rect x="-170" y="-8" width="340" height="5" rx="2.5" fill="#fff" opacity="0.55"/><rect x="-162" y="-74" width="24" height="148" rx="10" fill="#123a6b" /><rect x="-136" y="-59.2" width="24" height="118.4" rx="10" fill="#123a6b" /><rect x="112" y="-59.2" width="24" height="118.4" rx="10" fill="#123a6b" /><rect x="138" y="-74" width="24" height="148" rx="10" fill="#123a6b" /><rect x="-183" y="-52.2" width="14" height="104.4" rx="6" fill="#9aa3b4" /><rect x="169" y="-52.2" width="14" height="104.4" rx="6" fill="#9aa3b4" /><rect x="-146" y="-34" width="44" height="68" rx="8" fill="#2f80ed" opacity="0.0"/></g>
     <g transform="translate(500 232)" filter="url(#sh)"><path d="M-24 -86Q-24 -118 0 -118Q24 -118 24 -86" fill="none" stroke="#123a6b" stroke-width="14" stroke-linecap="round"/><circle cx="0" cy="-14" r="64" fill="#2f80ed" /><circle cx="0" cy="-14" r="64" fill="none" stroke="#fff" stroke-opacity="0.25" stroke-width="10"/><rect x="-24" y="-24" width="48" height="20" rx="6" fill="#fff" opacity="0.5"/></g>
     <g transform="translate(100 272)" filter="url(#sh2)"><ellipse cx="0" cy="0" rx="38" ry="12" fill="#ff7a59" /><rect x="-38" y="-10" width="76" height="10" rx="0" fill="#ff7a59" /><ellipse cx="0" cy="-10" rx="38" ry="12" fill="#ff7a59" /><ellipse cx="0" cy="-10" rx="28" ry="7" fill="#fff" opacity="0.35"/></g>
     <path d="M560 58Q560 70 572 70Q560 70 560 82Q560 70 548 70Q560 70 560 58Z" fill="#fff" /><path d="M90 71Q90 80 99 80Q90 80 90 89Q90 80 81 80Q90 80 90 71Z" fill="#fff" />
</svg>
