<svg xmlns="http://www.w3.org/2000/svg" viewBox="0 0 640 360" width="640" height="360" role="img">
<defs>
<linearGradient id="bg" x1="0" y1="0" x2="1" y2="1"><stop offset="0" stop-color="#efe8ff"/><stop offset="1" stop-color="#cdbdff"/></linearGradient>
<filter id="sh" x="-20%" y="-20%" width="140%" height="150%"><feDropShadow dx="0" dy="8" stdDeviation="9" flood-color="#000" flood-opacity="0.22"/></filter><filter id="sh2" x="-20%" y="-20%" width="140%" height="150%"><feDropShadow dx="0" dy="4" stdDeviation="4" flood-color="#000" flood-opacity="0.18"/></filter>
</defs>
<rect width="640" height="360" fill="url(#bg)"/>
<circle cx="552" cy="254.9" r="138.8" fill="#ffffff" opacity="0.13"/><circle cx="1.8" cy="300.8" r="102.2" fill="#ffffff" opacity="0.14"/><circle cx="172.1" cy="313.3" r="143.2" fill="#ffffff" opacity="0.14"/><circle cx="223" cy="115.9" r="102.4" fill="#ffffff" opacity="0.12"/><circle cx="24" cy="28" r="2" fill="#ffffff" opacity="0.35"/><circle cx="38" cy="28" r="2" fill="#ffffff" opacity="0.35"/><circle cx="52" cy="28" r="2" fill="#ffffff" opacity="0.35"/><circle cx="66" cy="28" r="2" fill="#ffffff" opacity="0.35"/><circle cx="80" cy="28" r="2" fill="#ffffff" opacity="0.35"/><circle cx="24" cy="42" r="2" fill="#ffffff" opacity="0.35"/><circle cx="38" cy="42" r="2" fill="#ffffff" opacity="0.35"/><circle cx="52" cy="42" r="2" fill="#ffffff" opacity="0.35"/><circle cx="66" cy="42" r="2" fill="#ffffff" opacity="0.35"/><circle cx="80" cy="42" r="2" fill="#ffffff" opacity="0.35"/><circle cx="24" cy="56" r="2" fill="#ffffff" opacity="0.35"/><circle cx="38" cy="56" r="2" fill="#ffffff" opacity="0.35"/><circle cx="52" cy="56" r="2" fill="#ffffff" opacity="0.35"/><circle cx="66" cy="56" r="2" fill="#ffffff" opacity="0.35"/><circle cx="80" cy="56" r="2" fill="#ffffff" opacity="0.35"/><circle cx="24" cy="70" r="2" fill="#ffffff" opacity="0.35"/><circle cx="38" cy="70" r="2" fill="#ffffff" opacity="0.35"/><circle cx="52" cy="70" r="2" fill="#ffffff" opacity="0.35"/><circle cx="66" cy="70" r="2" fill="#ffffff" opacity="0.35"/><circle cx="80" cy="70" r="2" fill="#ffffff" opacity="0.35"/>
<rect x="70" y="40" width="500" height="280" rx="24" fill="#ffffff" opacity="0.55"/>
     <g transform="translate(170 120) rotate(-8)" filter="url(#sh2)"><circle cx="0" cy="0" r="50" fill="#ff8fab" stroke="#ffffff" stroke-width="8" stroke-linejoin="round" paint-order="stroke"/><circle cx="-16" cy="-8" r="6" fill="#2e1d63" /><circle cx="16" cy="-8" r="6" fill="#2e1d63" /><path d="M-14 14Q0 26 14 14" fill="none" stroke="#2e1d63" stroke-width="5" stroke-linecap="round" stroke-linejoin="round" /><path d="M-42 -34L-30 -66L-10 -46Z" fill="#ff8fab" stroke="#ffffff" stroke-width="8" stroke-linejoin="round" paint-order="stroke"/><path d="M42 -34L30 -66L10 -46Z" fill="#ff8fab" stroke="#ffffff" stroke-width="8" stroke-linejoin="round" paint-order="stroke"/></g>
     <g transform="translate(330 110) rotate(10)" filter="url(#sh2)"><path d="M0 -50L14 -16L50 -14L22 8L32 44L0 24L-32 44L-22 8L-50 -14L-14 -16Z" fill="#3ec6a8" stroke="#ffffff" stroke-width="8" stroke-linejoin="round" paint-order="stroke"/></g>
     <g transform="translate(480 120) rotate(8)" filter="url(#sh2)"><path stroke="#ffffff" stroke-width="8" stroke-linejoin="round" paint-order="stroke" d="M0 34.2C-60.800000000000004 -3.8000000000000003 -26.599999999999998 -45.6 0 -15.200000000000001C26.599999999999998 -45.6 60.800000000000004 -3.8000000000000003 0 34.2Z" fill="#7c4dff" /></g>
     <g transform="translate(190 250) rotate(6)" filter="url(#sh2)"><path d="M-60 20Q-70 -20 -30 -22Q-24 -56 16 -48Q40 -64 58 -30Q86 -26 70 20Z" fill="#ffffff" stroke="#2e1d63" stroke-opacity="0.25" stroke-width="3"/><circle cx="-12" cy="-4" r="4.5" fill="#2e1d63" /><circle cx="22" cy="-4" r="4.5" fill="#2e1d63" /><path d="M-2 10Q4 16 10 10" fill="none" stroke="#2e1d63" stroke-width="4" stroke-linecap="round" stroke-linejoin="round" /></g>
     <g transform="translate(340 256) rotate(-6)" filter="url(#sh2)"><circle cx="0" cy="0" r="46" fill="#ff8fab" stroke="#ffffff" stroke-width="8" stroke-linejoin="round" paint-order="stroke"/><circle cx="0" cy="0" r="30" fill="#fff" opacity="0.35"/><path d="M-14 -4Q0 -26 14 -4" fill="none" stroke="#2e1d63" stroke-width="6" stroke-linecap="round"/><circle cx="0" cy="12" r="6" fill="#2e1d63" /></g>
     <g transform="translate(480 250) rotate(-4)" filter="url(#sh2)"><rect x="-46" y="-34" width="92" height="68" rx="18" fill="#7c4dff" stroke="#ffffff" stroke-width="8" stroke-linejoin="round" paint-order="stroke"/><circle cx="-16" cy="-6" r="6" fill="#fff" /><circle cx="16" cy="-6" r="6" fill="#fff" /><path d="M-12 12Q0 22 12 12" fill="none" stroke="#fff" stroke-width="5" stroke-linecap="round" stroke-linejoin="round" /></g>
</svg>
