<svg xmlns="http://www.w3.org/2000/svg" viewBox="0 0 640 360" width="640" height="360" role="img">
<defs>
<linearGradient id="bg" x1="0" y1="0" x2="1" y2="1"><stop offset="0" stop-color="#d9f5f3"/><stop offset="1" stop-color="#8fdad4"/></linearGradient>
<filter id="sh" x="-20%" y="-20%" width="140%" height="150%"><feDropShadow dx="0" dy="8" stdDeviation="9" flood-color="#000" flood-opacity="0.22"/></filter><filter id="sh2" x="-20%" y="-20%" width="140%" height="150%"><feDropShadow dx="0" dy="4" stdDeviation="4" flood-color="#000" flood-opacity="0.18"/></filter>
</defs>
<rect width="640" height="360" fill="url(#bg)"/>
<circle cx="298.3" cy="38.2" r="155.7" fill="#ffffff" opacity="0.16"/><circle cx="111.1" cy="51.2" r="148.6" fill="#ffffff" opacity="0.17"/><circle cx="38.4" cy="335.2" r="97" fill="#ffffff" opacity="0.11"/><circle cx="329.2" cy="304.9" r="72.8" fill="#ffffff" opacity="0.10"/><circle cx="546" cy="28" r="2" fill="#ffffff" opacity="0.35"/><circle cx="560" cy="28" r="2" fill="#ffffff" opacity="0.35"/><circle cx="574" cy="28" r="2" fill="#ffffff" opacity="0.35"/><circle cx="588" cy="28" r="2" fill="#ffffff" opacity="0.35"/><circle cx="602" cy="28" r="2" fill="#ffffff" opacity="0.35"/><circle cx="546" cy="42" r="2" fill="#ffffff" opacity="0.35"/><circle cx="560" cy="42" r="2" fill="#ffffff" opacity="0.35"/><circle cx="574" cy="42" r="2" fill="#ffffff" opacity="0.35"/><circle cx="588" cy="42" r="2" fill="#ffffff" opacity="0.35"/><circle cx="602" cy="42" r="2" fill="#ffffff" opacity="0.35"/><circle cx="546" cy="56" r="2" fill="#ffffff" opacity="0.35"/><circle cx="560" cy="56" r="2" fill="#ffffff" opacity="0.35"/><circle cx="574" cy="56" r="2" fill="#ffffff" opacity="0.35"/><circle cx="588" cy="56" r="2" fill="#ffffff" opacity="0.35"/><circle cx="602" cy="56" r="2" fill="#ffffff" opacity="0.35"/><circle cx="546" cy="70" r="2" fill="#ffffff" opacity="0.35"/><circle cx="560" cy="70" r="2" fill="#ffffff" opacity="0.35"/><circle cx="574" cy="70" r="2" fill="#ffffff" opacity="0.35"/><circle cx="588" cy="70" r="2" fill="#ffffff" opacity="0.35"/><circle cx="602" cy="70" r="2" fill="#ffffff" opacity="0.35"/>
<ellipse cx="320" cy="312" rx="190" ry="18" fill="#0b4a50" opacity="0.18"/>
     <path d="M190 150H450L432 270Q428 298 400 298H240Q212 298 208 270Z" fill="#ffffff" filter="url(#sh)"/>
     <path d="M199 200H441L432 270Q428 298 400 298H240Q212 298 208 270Z" fill="#0e9aa7" opacity="0.25"/>
     <path d="M452 176H476Q508 176 508 210Q508 246 470 246H436" fill="none" stroke="#fff" stroke-width="16" stroke-linecap="round"/>
     <ellipse cx="320" cy="150" rx="130" ry="20" fill="#4a2c1a" /><ellipse cx="320" cy="150" rx="116" ry="14" fill="#6a3f23" />
     <g transform="translate(320 20) rotate(0)" filter="url(#sh2)"><rect x="-52" y="-6" width="104" height="150" rx="6" fill="#f8f1e5" /><path d="M-52 -6L-44 -16L-34 -6L-24 -16L-14 -6L-4 -16L6 -6L16 -16L26 -6L36 -16L44 -6L52 -16V-6Z" fill="#f8f1e5" /><rect x="-52" y="8" width="104" height="42" rx="0" fill="#ff8c42" /><circle cx="0" cy="29" r="12" fill="#fff" opacity="0.9"/><rect x="-34" y="70" width="68" height="5" rx="2.5" fill="#0b4a50" opacity="0.35"/><rect x="-34" y="84" width="50" height="5" rx="2.5" fill="#0b4a50" opacity="0.35"/><path d="M-40 150H40" fill="none" stroke="#0b4a50" stroke-width="3" stroke-opacity="0.2"/></g>
     <ellipse cx="110" cy="110" rx="13" ry="18" fill="#5b3a22" transform="rotate(0 110 110)"/><line x1="110" y1="96" x2="110" y2="124" stroke="#2f1c10" stroke-width="3" stroke-linecap="round" transform="rotate(0 110 110)"/><ellipse cx="150" cy="70" rx="13" ry="18" fill="#5b3a22" transform="rotate(40 150 70)"/><line x1="150" y1="56" x2="150" y2="84" stroke="#2f1c10" stroke-width="3" stroke-linecap="round" transform="rotate(40 150 70)"/><ellipse cx="96" cy="180" rx="13" ry="18" fill="#5b3a22" transform="rotate(80 96 180)"/><line x1="96" y1="166" x2="96" y2="194" stroke="#2f1c10" stroke-width="3" stroke-linecap="round" transform="rotate(80 96 180)"/><ellipse cx="550" cy="120" rx="13" ry="18" fill="#5b3a22" transform="rotate(120 550 120)"/><line x1="550" y1="106" x2="550" y2="134" stroke="#2f1c10" stroke-width="3" stroke-linecap="round" transform="rotate(120 550 120)"/><ellipse cx="520" cy="70" rx="13" ry="18" fill="#5b3a22" transform="rotate(160 520 70)"/><line x1="520" y1="56" x2="520" y2="84" stroke="#2f1c10" stroke-width="3" stroke-linecap="round" transform="rotate(160 520 70)"/>
     <path d="M290 130Q272 108 292 88" fill="none" stroke="#fff" stroke-width="5" stroke-linecap="round" stroke-linejoin="round" opacity="0.0"/>
</svg>
