<svg xmlns="http://www.w3.org/2000/svg" viewBox="0 0 640 360" width="640" height="360" role="img">
<defs>
<linearGradient id="bg" x1="0" y1="0" x2="1" y2="1"><stop offset="0" stop-color="#fff0e2"/><stop offset="1" stop-color="#ffcfae"/></linearGradient>
<filter id="sh" x="-20%" y="-20%" width="140%" height="150%"><feDropShadow dx="0" dy="8" stdDeviation="9" flood-color="#000" flood-opacity="0.22"/></filter><filter id="sh2" x="-20%" y="-20%" width="140%" height="150%"><feDropShadow dx="0" dy="4" stdDeviation="4" flood-color="#000" flood-opacity="0.18"/></filter>
</defs>
<rect width="640" height="360" fill="url(#bg)"/>
<circle cx="515.7" cy="64.6" r="116.8" fill="#ffffff" opacity="0.10"/><circle cx="541.7" cy="206" r="81.4" fill="#ffffff" opacity="0.16"/><circle cx="173.7" cy="134.7" r="91.6" fill="#ffffff" opacity="0.16"/><circle cx="88.9" cy="117.9" r="54.6" fill="#ffffff" opacity="0.12"/><circle cx="24" cy="28" r="2" fill="#ffffff" opacity="0.35"/><circle cx="38" cy="28" r="2" fill="#ffffff" opacity="0.35"/><circle cx="52" cy="28" r="2" fill="#ffffff" opacity="0.35"/><circle cx="66" cy="28" r="2" fill="#ffffff" opacity="0.35"/><circle cx="80" cy="28" r="2" fill="#ffffff" opacity="0.35"/><circle cx="24" cy="42" r="2" fill="#ffffff" opacity="0.35"/><circle cx="38" cy="42" r="2" fill="#ffffff" opacity="0.35"/><circle cx="52" cy="42" r="2" fill="#ffffff" opacity="0.35"/><circle cx="66" cy="42" r="2" fill="#ffffff" opacity="0.35"/><circle cx="80" cy="42" r="2" fill="#ffffff" opacity="0.35"/><circle cx="24" cy="56" r="2" fill="#ffffff" opacity="0.35"/><circle cx="38" cy="56" r="2" fill="#ffffff" opacity="0.35"/><circle cx="52" cy="56" r="2" fill="#ffffff" opacity="0.35"/><circle cx="66" cy="56" r="2" fill="#ffffff" opacity="0.35"/><circle cx="80" cy="56" r="2" fill="#ffffff" opacity="0.35"/><circle cx="24" cy="70" r="2" fill="#ffffff" opacity="0.35"/><circle cx="38" cy="70" r="2" fill="#ffffff" opacity="0.35"/><circle cx="52" cy="70" r="2" fill="#ffffff" opacity="0.35"/><circle cx="66" cy="70" r="2" fill="#ffffff" opacity="0.35"/><circle cx="80" cy="70" r="2" fill="#ffffff" opacity="0.35"/>
<g transform="translate(160 60) rotate(-3)" filter="url(#sh)"><rect x="0" y="0" width="320" height="170" rx="28" fill="#ffffff" /><path d="M60 170L40 214L110 170Z" fill="#ffffff" /><g transform="translate(36 52)" ><path d="M0 0Q0 -30 30 -34L30 -22Q14 -18 14 -6H30V20H0Z" fill="#ef6f4b" /><path d="M44 0Q44 -30 74 -34L74 -22Q58 -18 58 -6H74V20H44Z" fill="#ef6f4b" /></g><rect x="36" y="100" width="210" height="9" rx="4.5" fill="#5a3320" opacity="0.3"/><rect x="36" y="124" width="150" height="9" rx="4.5" fill="#5a3320" opacity="0.3"/></g>
     <g transform="translate(420 190) rotate(4)" filter="url(#sh2)"><rect x="0" y="0" width="150" height="84" rx="22" fill="#7a4b2e" /><path d="M110 84L130 112L80 84Z" fill="#7a4b2e" /><rect x="20" y="22" width="96" height="8" rx="4" fill="#5a3320" opacity="0.5"/><rect x="20" y="44" width="64" height="8" rx="4" fill="#5a3320" opacity="0.5"/></g>
     <g transform="translate(80 210) rotate(-6)" ><rect x="0" y="0" width="78" height="88" rx="12" fill="#fff" filter="url(#sh2)"/><rect x="0" y="0" width="78" height="24" rx="12" fill="#ffb347" /><rect x="0" y="12" width="78" height="12" rx="0" fill="#ffb347" /><circle cx="39" cy="56" r="18" fill="#ffb347" opacity="0.2"/><path d="M31 56L36.6 61.6L47 50.4" fill="none" stroke="#ffb347" stroke-width="5" stroke-linecap="round" stroke-linejoin="round" /></g>
     <path d="M560 65Q560 80 575 80Q560 80 560 95Q560 80 545 80Q560 80 560 65Z" fill="#fff" /><path d="M110 79Q110 90 121 90Q110 90 110 101Q110 90 99 90Q110 90 110 79Z" fill="#7a4b2e" />
</svg>
