<svg xmlns="http://www.w3.org/2000/svg" viewBox="0 0 640 360" width="640" height="360" role="img">
<defs>
<linearGradient id="bg" x1="0" y1="0" x2="1" y2="1"><stop offset="0" stop-color="#2b1b5a"/><stop offset="1" stop-color="#6a3fc2"/></linearGradient>
<filter id="sh" x="-20%" y="-20%" width="140%" height="150%"><feDropShadow dx="0" dy="8" stdDeviation="9" flood-color="#000" flood-opacity="0.22"/></filter><filter id="sh2" x="-20%" y="-20%" width="140%" height="150%"><feDropShadow dx="0" dy="4" stdDeviation="4" flood-color="#000" flood-opacity="0.18"/></filter>
</defs>
<rect width="640" height="360" fill="url(#bg)"/>
<circle cx="448.1" cy="12.2" r="139.1" fill="#ffffff" opacity="0.07"/><circle cx="120.3" cy="280.9" r="124.1" fill="#ffffff" opacity="0.16"/><circle cx="558.5" cy="205" r="139.7" fill="#ffffff" opacity="0.15"/><circle cx="393.8" cy="126.4" r="115.5" fill="#ffffff" opacity="0.15"/><circle cx="24" cy="28" r="2" fill="#ffffff" opacity="0.35"/><circle cx="38" cy="28" r="2" fill="#ffffff" opacity="0.35"/><circle cx="52" cy="28" r="2" fill="#ffffff" opacity="0.35"/><circle cx="66" cy="28" r="2" fill="#ffffff" opacity="0.35"/><circle cx="80" cy="28" r="2" fill="#ffffff" opacity="0.35"/><circle cx="24" cy="42" r="2" fill="#ffffff" opacity="0.35"/><circle cx="38" cy="42" r="2" fill="#ffffff" opacity="0.35"/><circle cx="52" cy="42" r="2" fill="#ffffff" opacity="0.35"/><circle cx="66" cy="42" r="2" fill="#ffffff" opacity="0.35"/><circle cx="80" cy="42" r="2" fill="#ffffff" opacity="0.35"/><circle cx="24" cy="56" r="2" fill="#ffffff" opacity="0.35"/><circle cx="38" cy="56" r="2" fill="#ffffff" opacity="0.35"/><circle cx="52" cy="56" r="2" fill="#ffffff" opacity="0.35"/><circle cx="66" cy="56" r="2" fill="#ffffff" opacity="0.35"/><circle cx="80" cy="56" r="2" fill="#ffffff" opacity="0.35"/><circle cx="24" cy="70" r="2" fill="#ffffff" opacity="0.35"/><circle cx="38" cy="70" r="2" fill="#ffffff" opacity="0.35"/><circle cx="52" cy="70" r="2" fill="#ffffff" opacity="0.35"/><circle cx="66" cy="70" r="2" fill="#ffffff" opacity="0.35"/><circle cx="80" cy="70" r="2" fill="#ffffff" opacity="0.35"/>
<g transform="translate(240 185) rotate(-5)" filter="url(#sh)">
    <rect x="-70" y="-135" width="140" height="270" rx="24" fill="#1a0f3a" />
    <clipPath id="p31"><rect x="-62" y="-127" width="124" height="254" rx="17" fill="#000" /></clipPath>
    <rect x="-62" y="-127" width="124" height="254" rx="17" fill="#fff" />
    <g clip-path="url(#p31)"><rect x="-62" y="-120" width="124" height="36" rx="0" fill="#b794ff" /><rect x="-48" y="-106" width="56" height="5" rx="2.5" fill="#fff" /><rect x="-48" y="-96" width="32" height="5" rx="2.5" fill="#fff" />
      <rect x="-52" y="-66" width="104" height="42" rx="10" fill="#f3f4f7" /><circle cx="-34" cy="-45" r="12" fill="#ff7aa8" /><rect x="-14" y="-53" width="56" height="5" rx="2.5" fill="#1a0f3a" opacity="0.4"/><rect x="-14" y="-39" width="36" height="5" rx="2.5" fill="#1a0f3a" opacity="0.4"/><rect x="-52" y="-14" width="104" height="42" rx="10" fill="#f3f4f7" /><circle cx="-34" cy="7" r="12" fill="#ffd166" /><rect x="-14" y="-1" width="56" height="5" rx="2.5" fill="#1a0f3a" opacity="0.4"/><rect x="-14" y="13" width="36" height="5" rx="2.5" fill="#1a0f3a" opacity="0.4"/><rect x="-52" y="38" width="104" height="42" rx="10" fill="#f3f4f7" /><circle cx="-34" cy="59" r="12" fill="#b794ff" /><rect x="-14" y="51" width="56" height="5" rx="2.5" fill="#1a0f3a" opacity="0.4"/><rect x="-14" y="65" width="36" height="5" rx="2.5" fill="#1a0f3a" opacity="0.4"/>
      <rect x="-52" y="96" width="104" height="20" rx="10" fill="#ffd166" /></g>
    <rect x="-22" y="-123" width="44" height="9" rx="4.5" fill="#1a0f3a" />
  </g><g transform="translate(450 160) rotate(8)" filter="url(#sh)"><path d="M-18 -70H18V-26L52 40Q62 62 40 66H-40Q-62 62 -52 40L-18 -26Z" fill="#ffffff" /><path d="M-46 34H46L52 46Q58 62 40 62H-40Q-58 62 -52 46Z" fill="#b794ff" opacity="0.9"/><rect x="-26" y="-78" width="52" height="12" rx="6" fill="#1a0f3a" /><circle cx="-12" cy="46" r="5" fill="#fff" /><circle cx="10" cy="40" r="4" fill="#fff" /><circle cx="20" cy="52" r="3" fill="#fff" /></g><g transform="translate(392 276)" ><path d="M0 -14L4 -4L15 -4L6 3L9 14L0 7L-9 14L-6 3L-15 -4L-4 -4Z" fill="#ffd166" /></g><g transform="translate(426 276)" ><path d="M0 -14L4 -4L15 -4L6 3L9 14L0 7L-9 14L-6 3L-15 -4L-4 -4Z" fill="#ffd166" /></g><g transform="translate(460 276)" ><path d="M0 -14L4 -4L15 -4L6 3L9 14L0 7L-9 14L-6 3L-15 -4L-4 -4Z" fill="#ffd166" /></g><g transform="translate(494 276)" ><path d="M0 -14L4 -4L15 -4L6 3L9 14L0 7L-9 14L-6 3L-15 -4L-4 -4Z" fill="#ffd166" /></g><g transform="translate(528 276)" ><path d="M0 -14L4 -4L15 -4L6 3L9 14L0 7L-9 14L-6 3L-15 -4L-4 -4Z" fill="#ffffff" opacity="0.5"/></g><g transform="translate(378 70) rotate(-6)" filter="url(#sh2)"><path d="M0 0H100L88 22L100 44H0Z" fill="#ff7aa8" /></g>
</svg>
