<svg xmlns="http://www.w3.org/2000/svg" viewBox="0 0 640 360" width="640" height="360" role="img">
<defs>
<linearGradient id="bg" x1="0" y1="0" x2="1" y2="1"><stop offset="0" stop-color="#ffe3ec"/><stop offset="1" stop-color="#ffc0d3"/></linearGradient>
<filter id="sh" x="-20%" y="-20%" width="140%" height="150%"><feDropShadow dx="0" dy="8" stdDeviation="9" flood-color="#000" flood-opacity="0.22"/></filter><filter id="sh2" x="-20%" y="-20%" width="140%" height="150%"><feDropShadow dx="0" dy="4" stdDeviation="4" flood-color="#000" flood-opacity="0.18"/></filter>
</defs>
<rect width="640" height="360" fill="url(#bg)"/>
<circle cx="334.8" cy="273.5" r="69" fill="#ffffff" opacity="0.10"/><circle cx="11.9" cy="157.2" r="133.1" fill="#ffffff" opacity="0.10"/><circle cx="500.8" cy="122" r="154.7" fill="#ffffff" opacity="0.16"/><circle cx="190.1" cy="251.8" r="62.6" fill="#ffffff" opacity="0.09"/><circle cx="24" cy="28" r="2" fill="#ffffff" opacity="0.35"/><circle cx="38" cy="28" r="2" fill="#ffffff" opacity="0.35"/><circle cx="52" cy="28" r="2" fill="#ffffff" opacity="0.35"/><circle cx="66" cy="28" r="2" fill="#ffffff" opacity="0.35"/><circle cx="80" cy="28" r="2" fill="#ffffff" opacity="0.35"/><circle cx="24" cy="42" r="2" fill="#ffffff" opacity="0.35"/><circle cx="38" cy="42" r="2" fill="#ffffff" opacity="0.35"/><circle cx="52" cy="42" r="2" fill="#ffffff" opacity="0.35"/><circle cx="66" cy="42" r="2" fill="#ffffff" opacity="0.35"/><circle cx="80" cy="42" r="2" fill="#ffffff" opacity="0.35"/><circle cx="24" cy="56" r="2" fill="#ffffff" opacity="0.35"/><circle cx="38" cy="56" r="2" fill="#ffffff" opacity="0.35"/><circle cx="52" cy="56" r="2" fill="#ffffff" opacity="0.35"/><circle cx="66" cy="56" r="2" fill="#ffffff" opacity="0.35"/><circle cx="80" cy="56" r="2" fill="#ffffff" opacity="0.35"/><circle cx="24" cy="70" r="2" fill="#ffffff" opacity="0.35"/><circle cx="38" cy="70" r="2" fill="#ffffff" opacity="0.35"/><circle cx="52" cy="70" r="2" fill="#ffffff" opacity="0.35"/><circle cx="66" cy="70" r="2" fill="#ffffff" opacity="0.35"/><circle cx="80" cy="70" r="2" fill="#ffffff" opacity="0.35"/>
<g transform="translate(210 150)" filter="url(#sh)"><rect x="-34" y="-90" width="68" height="120" rx="34" fill="#6b1f3a" /><rect x="-34" y="-90" width="68" height="120" rx="34" fill="#fff" opacity="0.1"/><line x1="-24" y1="-60" x2="24" y2="-60" stroke="#fff" stroke-width="3" stroke-linecap="round" opacity="0.35"/><line x1="-24" y1="-40" x2="24" y2="-40" stroke="#fff" stroke-width="3" stroke-linecap="round" opacity="0.35"/><line x1="-24" y1="-20" x2="24" y2="-20" stroke="#fff" stroke-width="3" stroke-linecap="round" opacity="0.35"/><line x1="-24" y1="0" x2="24" y2="0" stroke="#fff" stroke-width="3" stroke-linecap="round" opacity="0.35"/><line x1="-24" y1="20" x2="24" y2="20" stroke="#fff" stroke-width="3" stroke-linecap="round" opacity="0.35"/><path d="M-58 -20Q-58 52 0 52Q58 52 58 -20" fill="none" stroke="#6b1f3a" stroke-width="10" stroke-linecap="round"/><line x1="0" y1="52" x2="0" y2="96" stroke="#6b1f3a" stroke-width="10" stroke-linecap="round" /><rect x="-40" y="94" width="80" height="12" rx="6" fill="#6b1f3a" /></g>
     <g transform="translate(330 50) rotate(2)" filter="url(#sh)"><rect x="0" y="0" width="200" height="86" rx="24" fill="#ffffff" /><path d="M24 86L12 116L58 86Z" fill="#ffffff" /><rect x="22" y="22" width="140" height="9" rx="4.5" fill="#6b1f3a" opacity="0.35"/><rect x="22" y="46" width="100" height="9" rx="4.5" fill="#6b1f3a" opacity="0.35"/></g>
     <g transform="translate(360 176) rotate(-2)" filter="url(#sh)"><rect x="0" y="0" width="190" height="78" rx="24" fill="#f0457a" /><path d="M170 78L184 106L136 78Z" fill="#f0457a" /><rect x="22" y="20" width="130" height="9" rx="4.5" fill="#fff" opacity="0.9"/><rect x="22" y="42" width="90" height="9" rx="4.5" fill="#fff" opacity="0.9"/></g>
     <path d="M580 294.8C560.8 282.8 571.6 269.6 580 279.2C588.4 269.6 599.2 282.8 580 294.8Z" fill="#ffb703" /><path d="M90 57Q90 70 103 70Q90 70 90 83Q90 70 77 70Q90 70 90 57Z" fill="#8e5bd6" /><path d="M540 31Q540 40 549 40Q540 40 540 49Q540 40 531 40Q540 40 540 31Z" fill="#fff" /><circle cx="320" cy="300" r="7" fill="#fff" opacity="0.6"/><circle cx="344" cy="300" r="7" fill="#fff" opacity="0.4"/><circle cx="368" cy="300" r="7" fill="#fff" opacity="0.25"/>
</svg>
