<svg xmlns="http://www.w3.org/2000/svg" viewBox="0 0 640 360" width="640" height="360" role="img">
<defs>
<linearGradient id="bg" x1="0" y1="0" x2="1" y2="1"><stop offset="0" stop-color="#efe8ff"/><stop offset="1" stop-color="#cdbdff"/></linearGradient>
<filter id="sh" x="-20%" y="-20%" width="140%" height="150%"><feDropShadow dx="0" dy="8" stdDeviation="9" flood-color="#000" flood-opacity="0.22"/></filter><filter id="sh2" x="-20%" y="-20%" width="140%" height="150%"><feDropShadow dx="0" dy="4" stdDeviation="4" flood-color="#000" flood-opacity="0.18"/></filter>
</defs>
<rect width="640" height="360" fill="url(#bg)"/>
<circle cx="185.7" cy="297" r="78.7" fill="#ffffff" opacity="0.08"/><circle cx="559.3" cy="144.3" r="141.7" fill="#ffffff" opacity="0.16"/><circle cx="316.2" cy="64.8" r="117.5" fill="#ffffff" opacity="0.16"/><circle cx="536.3" cy="235.5" r="73.9" fill="#ffffff" opacity="0.12"/><circle cx="24" cy="28" r="2" fill="#ffffff" opacity="0.35"/><circle cx="38" cy="28" r="2" fill="#ffffff" opacity="0.35"/><circle cx="52" cy="28" r="2" fill="#ffffff" opacity="0.35"/><circle cx="66" cy="28" r="2" fill="#ffffff" opacity="0.35"/><circle cx="80" cy="28" r="2" fill="#ffffff" opacity="0.35"/><circle cx="24" cy="42" r="2" fill="#ffffff" opacity="0.35"/><circle cx="38" cy="42" r="2" fill="#ffffff" opacity="0.35"/><circle cx="52" cy="42" r="2" fill="#ffffff" opacity="0.35"/><circle cx="66" cy="42" r="2" fill="#ffffff" opacity="0.35"/><circle cx="80" cy="42" r="2" fill="#ffffff" opacity="0.35"/><circle cx="24" cy="56" r="2" fill="#ffffff" opacity="0.35"/><circle cx="38" cy="56" r="2" fill="#ffffff" opacity="0.35"/><circle cx="52" cy="56" r="2" fill="#ffffff" opacity="0.35"/><circle cx="66" cy="56" r="2" fill="#ffffff" opacity="0.35"/><circle cx="80" cy="56" r="2" fill="#ffffff" opacity="0.35"/><circle cx="24" cy="70" r="2" fill="#ffffff" opacity="0.35"/><circle cx="38" cy="70" r="2" fill="#ffffff" opacity="0.35"/><circle cx="52" cy="70" r="2" fill="#ffffff" opacity="0.35"/><circle cx="66" cy="70" r="2" fill="#ffffff" opacity="0.35"/><circle cx="80" cy="70" r="2" fill="#ffffff" opacity="0.35"/>
<rect x="0" y="300" width="640" height="60" rx="0" fill="#2e1d63" opacity="0.12"/>
     <g transform="translate(140 80)" filter="url(#sh)"><rect x="0" y="0" width="360" height="190" rx="14" fill="#ffffff" /><rect x="18" y="70" width="324" height="120" rx="8" fill="#efe8ff" opacity="0.7"/><rect x="34" y="96" width="100" height="94" rx="6" fill="#2e1d63" opacity="0.75"/><circle cx="118" cy="148" r="4" fill="#ff8fab" /><rect x="158" y="92" width="164" height="66" rx="8" fill="#ffffff" opacity="0.85"/><rect x="170" y="106" width="110" height="7" rx="3.5" fill="#2e1d63" opacity="0.25"/><rect x="170" y="128" width="80" height="7" rx="3.5" fill="#2e1d63" opacity="0.25"/><path d="M0 0H60L60 44Q30 62 0 44Z" fill="#7c4dff" /><path d="M60 0H120L120 44Q90 62 60 44Z" fill="#ffffff" /><path d="M120 0H180L180 44Q150 62 120 44Z" fill="#7c4dff" /><path d="M180 0H240L240 44Q210 62 180 44Z" fill="#ffffff" /><path d="M240 0H300L300 44Q270 62 240 44Z" fill="#7c4dff" /><path d="M300 0H360L360 44Q330 62 300 44Z" fill="#ffffff" /></g>
     <g transform="translate(540 70) rotate(4)" filter="url(#sh2)"><line x1="0" y1="-26" x2="0" y2="0" stroke="#2e1d63" stroke-width="3" stroke-linecap="round" /><rect x="-52" y="0" width="104" height="54" rx="10" fill="#ff8fab" /><rect x="-44" y="8" width="88" height="38" rx="6" fill="#fff" opacity="0.85"/><rect x="-30" y="20" width="60" height="8" rx="4" fill="#2e1d63" opacity="0.7"/></g>
     <g transform="translate(90 120)" ><path d="M0 0C-30 -20 -26 -60 0 -60C26 -60 30 -20 0 0Z" fill="#3ec6a8" /><line x1="0" y1="0" x2="4" y2="60" stroke="#2e1d63" stroke-width="2" stroke-linecap="round" opacity="0.5"/></g><g transform="translate(560 200)" ><path d="M0 0C-26 -18 -22 -52 0 -52C22 -52 26 -18 0 0Z" fill="#7c4dff" /><line x1="0" y1="0" x2="-4" y2="50" stroke="#2e1d63" stroke-width="2" stroke-linecap="round" opacity="0.5"/></g>
     <rect x="60" y="250" width="10" height="5" rx="2" fill="#ff8fab" transform="rotate(0 60 250)"/><rect x="100" y="290" width="10" height="5" rx="2" fill="#3ec6a8" transform="rotate(50 100 290)"/><rect x="520" y="270" width="10" height="5" rx="2" fill="#7c4dff" transform="rotate(100 520 270)"/><rect x="590" y="300" width="10" height="5" rx="2" fill="#ff8fab" transform="rotate(150 590 300)"/><rect x="30" y="180" width="10" height="5" rx="2" fill="#fff" transform="rotate(200 30 180)"/><rect x="610" y="140" width="10" height="5" rx="2" fill="#fff" transform="rotate(250 610 140)"/>
     <path d="M300 38Q300 50 312 50Q300 50 300 62Q300 50 288 50Q300 50 300 38Z" fill="#fff" />
</svg>
